<?xml version="1.0" encoding="UTF-8"?>
<svg width="20px" height="24px" viewBox="0 0 20 24" version="1.1" xmlns="http://www.w3.org/2000/svg" xmlns:xlink="http://www.w3.org/1999/xlink">
    <title>验证码</title>
    <g id="V3" stroke="none" stroke-width="1" fill="none" fill-rule="evenodd">
        <g id="01登陆页" transform="translate(-1309, -517)" fill="#8C8C8C" fill-rule="nonzero">
            <g id="内容" transform="translate(1293, 151)">
                <g id="验证码" transform="translate(0, 324)">
                    <g transform="translate(16, 42)" id="形状">
                        <path d="M10,23.2558139 C6.5,23.2558139 0,18.0465116 0,13.1162791 L0,3.70930233 C0,3.47674418 0.186046517,3.30232558 0.430232552,3.29069769 L1,3.27906977 C1.0232558,3.27906977 3.24418603,3.23255814 5.53488373,2.32558141 C7.87209303,1.39534885 9.38372092,0.325581404 9.40697675,0.313953491 L9.74418604,0.0813953681 C9.81395347,0.034883739 9.90697673,0 10,0 C10.0930232,0 10.1860465,0.0232558032 10.255814,0.0813953681 L10.5930233,0.325581404 C10.6046512,0.337209317 12.127907,1.40697674 14.4767442,2.3372093 C16.7674419,3.24418603 18.9883721,3.29069766 19.0116279,3.29069769 L19.5697674,3.30232558 C19.8023256,3.30232558 20,3.48837209 20,3.72093024 L20,13.127907 C20,18.0465116 13.5,23.2558139 10,23.2558139 Z M18.4651163,4.80232558 C17.6046512,4.73255814 15.7906977,4.51162791 13.9186047,3.76744187 C11.9883721,3.01162791 10.5813954,2.1627907 9.99999999,1.77906977 C9.41860464,2.15116281 8.01162789,3.01162791 6.08139534,3.76744187 C4.20930231,4.51162791 2.40697673,4.73255814 1.53488372,4.80232558 L1.53488372,13.1162791 C1.53488372,16.9767442 7.19767442,21.7093023 9.99999999,21.7093023 C11.0813953,21.7093023 13.1976744,20.8255814 15.2674419,18.8953488 C17.2674419,17.0348837 18.4651163,14.872093 18.4651163,13.1162791 L18.4651163,4.80232558 Z M9.19767443,14.6976744 C9.05813954,14.8488372 8.86046513,14.9302326 8.65116279,14.9302326 C8.44186047,14.9302326 8.25581395,14.8488372 8.10465115,14.6976744 L5.79069768,12.372093 C5.64555963,12.2272523 5.56399688,12.0306275 5.56399688,11.8255814 C5.56399688,11.6205353 5.64555963,11.4239106 5.79069768,11.2790698 C6.09302326,10.9767442 6.56976744,10.9767442 6.87209302,11.2674419 L6.88372093,11.2790698 L8.65116279,13.0581395 L13.1046512,8.56976744 C13.3953488,8.26744187 13.8837209,8.26744187 14.1860465,8.55813953 L14.1976744,8.56976744 C14.5,8.87209302 14.5,9.36046512 14.1976744,9.66279069 L9.19767443,14.6976744 Z"></path>
                    </g>
                </g>
            </g>
        </g>
    </g>
</svg>